<svg width="20" height="20" viewBox="0 0 20 20" fill="none" xmlns="http://www.w3.org/2000/svg"><path d="M4.704 3.135 C 3.975 3.326,3.320 3.985,3.133 4.717 C 3.070 4.963,3.067 5.087,3.067 6.970 L 3.067 8.963 2.893 9.051 C 2.270 9.363,1.715 9.974,1.424 10.667 C 1.186 11.233,1.190 11.174,1.176 13.898 C 1.161 16.606,1.154 16.505,1.374 16.730 C 1.526 16.886,1.652 16.940,1.864 16.942 C 2.059 16.944,2.220 16.883,2.362 16.754 C 2.501 16.628,2.545 16.498,2.567 16.154 C 2.585 15.864,2.597 15.817,2.664 15.762 C 2.738 15.702,2.968 15.700,10.000 15.700 C 17.032 15.700,17.262 15.702,17.336 15.762 C 17.403 15.817,17.415 15.864,17.433 16.154 C 17.455 16.498,17.499 16.628,17.638 16.754 C 17.780 16.883,17.941 16.944,18.136 16.942 C 18.348 16.940,18.474 16.886,18.626 16.730 C 18.846 16.505,18.839 16.605,18.824 13.897 C 18.809 11.175,18.813 11.231,18.576 10.667 C 18.285 9.974,17.730 9.363,17.107 9.051 L 16.933 8.963 16.933 6.970 C 16.933 5.087,16.930 4.963,16.867 4.717 C 16.678 3.978,16.022 3.322,15.283 3.133 C 15.028 3.068,14.914 3.067,9.986 3.069 C 5.118 3.070,4.942 3.072,4.704 3.135 M15.041 4.528 C 15.228 4.620,15.450 4.860,15.505 5.029 C 15.551 5.170,15.588 7.181,15.544 7.162 C 15.529 7.155,15.389 7.087,15.233 7.011 C 15.069 6.931,14.858 6.858,14.731 6.837 C 14.383 6.779,11.111 6.788,10.829 6.848 C 10.606 6.895,10.360 7.004,10.127 7.158 L 10.001 7.241 9.842 7.139 C 9.591 6.978,9.335 6.873,9.100 6.835 C 8.801 6.787,5.559 6.788,5.269 6.837 C 5.142 6.858,4.931 6.931,4.767 7.011 C 4.611 7.087,4.472 7.155,4.458 7.161 C 4.421 7.178,4.428 5.369,4.467 5.163 C 4.527 4.841,4.793 4.558,5.107 4.481 C 5.248 4.447,6.254 4.440,10.083 4.444 L 14.883 4.450 15.041 4.528 M8.983 8.262 C 9.138 8.333,9.180 8.377,9.250 8.544 L 9.301 8.667 7.185 8.667 L 5.068 8.667 5.103 8.575 C 5.149 8.453,5.293 8.302,5.417 8.247 C 5.496 8.212,5.864 8.202,7.183 8.202 C 8.725 8.202,8.860 8.206,8.983 8.262 M14.576 8.246 C 14.705 8.301,14.850 8.449,14.897 8.575 L 14.932 8.667 12.815 8.667 L 10.699 8.667 10.750 8.544 C 10.820 8.377,10.862 8.333,11.017 8.262 C 11.140 8.206,11.277 8.201,12.809 8.201 C 14.146 8.200,14.490 8.209,14.576 8.246 M15.952 10.103 C 16.391 10.182,16.889 10.519,17.135 10.903 C 17.195 10.996,17.282 11.172,17.329 11.294 L 17.416 11.517 17.426 12.908 L 17.437 14.300 10.002 14.300 L 2.567 14.300 2.567 13.023 C 2.567 12.256,2.581 11.667,2.603 11.548 C 2.731 10.840,3.377 10.211,4.100 10.090 C 4.146 10.082,6.787 10.074,9.969 10.071 C 13.971 10.068,15.815 10.078,15.952 10.103 " stroke="none" fill-rule="evenodd" fill="black"></path></svg>