<svg width="20" height="20" viewBox="0 0 20 20" fill="none" xmlns="http://www.w3.org/2000/svg"><path d="M6.367 0.986 C 6.302 1.014,6.207 1.077,6.155 1.127 C 5.968 1.305,5.951 1.370,5.933 2.000 L 5.917 2.583 4.783 2.602 C 3.533 2.622,3.499 2.627,3.063 2.855 C 2.456 3.172,1.997 3.745,1.832 4.390 C 1.766 4.645,1.765 4.761,1.766 10.837 C 1.767 16.881,1.768 17.029,1.832 17.280 C 2.043 18.101,2.732 18.791,3.554 19.001 C 3.805 19.065,3.949 19.067,10.000 19.067 C 16.051 19.067,16.195 19.065,16.446 19.001 C 17.268 18.791,17.957 18.101,18.168 17.280 C 18.232 17.029,18.233 16.881,18.234 10.837 C 18.235 4.761,18.234 4.645,18.168 4.390 C 18.003 3.745,17.544 3.172,16.937 2.855 C 16.501 2.627,16.467 2.622,15.217 2.602 L 14.083 2.583 14.067 2.000 C 14.049 1.370,14.032 1.305,13.845 1.127 C 13.572 0.868,13.094 0.868,12.822 1.127 C 12.634 1.305,12.618 1.370,12.600 2.000 L 12.583 2.583 10.000 2.583 L 7.417 2.583 7.400 2.000 C 7.382 1.370,7.366 1.305,7.178 1.127 C 6.981 0.940,6.619 0.877,6.367 0.986 M5.933 4.667 C 5.951 5.297,5.968 5.362,6.155 5.540 C 6.499 5.867,7.095 5.770,7.328 5.350 C 7.371 5.271,7.387 5.125,7.400 4.667 L 7.417 4.083 10.000 4.083 L 12.583 4.083 12.600 4.667 C 12.618 5.297,12.634 5.362,12.822 5.540 C 13.094 5.799,13.572 5.799,13.845 5.540 C 14.032 5.362,14.049 5.297,14.067 4.667 L 14.083 4.083 15.050 4.083 C 15.994 4.084,16.021 4.085,16.191 4.162 C 16.405 4.259,16.602 4.467,16.686 4.685 C 16.745 4.838,16.750 4.952,16.750 6.217 L 16.750 7.583 10.000 7.583 L 3.250 7.583 3.250 6.233 C 3.250 4.696,3.255 4.662,3.488 4.402 C 3.762 4.097,3.883 4.072,5.033 4.078 L 5.917 4.083 5.933 4.667 M16.750 12.950 C 16.750 16.673,16.748 16.823,16.686 16.981 C 16.602 17.200,16.405 17.408,16.191 17.505 L 16.017 17.583 10.017 17.583 C 4.195 17.583,4.012 17.581,3.852 17.520 C 3.634 17.436,3.426 17.239,3.329 17.024 L 3.250 16.850 3.241 13.001 C 3.236 10.884,3.239 9.133,3.248 9.109 C 3.262 9.075,4.534 9.068,10.007 9.075 L 16.750 9.083 16.750 12.950 " stroke="none" fill-rule="evenodd" fill="black"></path></svg>