<svg width="20" height="20" viewBox="0 0 20 20" fill="none" xmlns="http://www.w3.org/2000/svg"><path d="M4.983 1.267 C 4.333 1.397,3.791 1.892,3.558 2.567 L 3.483 2.783 3.474 9.233 C 3.468 13.414,3.476 15.803,3.498 16.022 C 3.516 16.209,3.562 16.440,3.598 16.536 C 3.744 16.919,4.109 17.343,4.447 17.520 C 4.613 17.607,4.627 17.623,4.642 17.752 C 4.681 18.101,4.968 18.481,5.325 18.656 C 5.516 18.750,5.521 18.750,6.275 18.761 C 7.135 18.773,7.270 18.750,7.549 18.553 C 7.765 18.399,7.917 18.202,8.004 17.962 L 8.076 17.767 10.004 17.767 L 11.932 17.767 11.954 17.858 C 12.030 18.173,12.319 18.516,12.633 18.664 C 12.815 18.749,12.823 18.750,13.650 18.750 C 14.477 18.750,14.485 18.749,14.667 18.664 C 15.016 18.500,15.273 18.174,15.351 17.801 C 15.387 17.625,15.396 17.614,15.586 17.503 C 15.985 17.271,16.312 16.851,16.455 16.383 C 16.514 16.192,16.517 15.894,16.517 9.517 C 16.517 3.978,16.509 2.819,16.471 2.667 C 16.306 2.005,15.689 1.403,15.040 1.270 C 14.831 1.227,5.199 1.224,4.983 1.267 M14.982 2.646 C 15.051 2.699,15.136 2.807,15.171 2.885 C 15.231 3.021,15.233 3.134,15.225 5.289 L 15.217 7.550 10.000 7.550 L 4.783 7.550 4.783 5.248 L 4.783 2.945 4.875 2.807 C 4.925 2.731,5.023 2.639,5.092 2.602 C 5.215 2.537,5.285 2.536,10.036 2.543 L 14.855 2.550 14.982 2.646 M6.183 3.496 C 6.022 3.571,5.920 3.676,5.852 3.841 C 5.808 3.946,5.800 4.175,5.800 5.355 C 5.800 6.709,5.802 6.750,5.871 6.893 C 5.975 7.108,6.186 7.233,6.442 7.233 C 6.549 7.233,6.679 7.212,6.730 7.185 C 6.866 7.115,7.024 6.921,7.065 6.776 C 7.111 6.607,7.112 4.061,7.065 3.893 C 6.964 3.528,6.534 3.335,6.183 3.496 M15.217 12.452 L 15.217 16.055 15.127 16.190 C 15.073 16.271,14.980 16.353,14.892 16.396 L 14.746 16.467 10.005 16.467 C 6.097 16.467,5.246 16.459,5.157 16.422 C 4.997 16.354,4.844 16.179,4.803 16.016 C 4.763 15.855,4.749 8.895,4.789 8.855 C 4.801 8.843,7.153 8.837,10.014 8.842 L 15.217 8.850 15.217 12.452 M6.285 9.004 C 6.106 9.046,5.938 9.182,5.864 9.346 C 5.806 9.473,5.801 9.587,5.801 10.883 C 5.801 12.170,5.806 12.294,5.863 12.418 C 6.077 12.889,6.727 12.923,7.004 12.477 L 7.083 12.350 7.083 10.900 L 7.083 9.450 6.995 9.300 C 6.853 9.058,6.567 8.938,6.285 9.004 " stroke="none" fill-rule="evenodd" fill="black"></path></svg>