<svg width="20" height="20" viewBox="0 0 20 20" fill="none" xmlns="http://www.w3.org/2000/svg"><path d="M11.667 1.082 C 10.516 1.421,9.216 2.293,8.344 3.313 C 7.259 4.581,6.640 6.147,6.577 7.783 C 6.539 8.767,6.683 9.579,7.100 10.716 C 7.186 10.951,7.174 11.091,7.053 11.248 C 6.885 11.470,6.561 11.535,6.287 11.402 C 6.129 11.325,5.883 11.031,5.636 10.625 C 4.932 9.466,4.812 7.904,5.330 6.635 C 5.386 6.499,5.427 6.382,5.421 6.377 C 5.393 6.348,4.874 6.835,4.623 7.124 C 3.395 8.542,2.800 10.493,3.065 12.232 C 3.224 13.276,3.698 14.484,4.221 15.178 C 5.163 16.430,6.562 17.361,8.089 17.752 C 8.677 17.903,9.152 17.964,9.917 17.989 C 12.951 18.087,15.366 16.828,16.450 14.583 C 16.659 14.151,16.835 13.614,16.921 13.150 C 17.013 12.658,17.005 11.708,16.906 11.245 C 16.747 10.500,16.518 9.992,15.990 9.206 C 15.496 8.471,15.052 8.046,13.993 7.296 C 13.230 6.756,13.003 6.574,12.677 6.242 C 11.429 4.977,11.074 2.927,11.821 1.302 C 11.883 1.166,11.931 1.044,11.926 1.031 C 11.921 1.019,11.804 1.042,11.667 1.082 M10.661 8.775 C 10.835 9.090,11.080 9.437,11.304 9.682 C 11.453 9.845,12.303 10.593,12.586 10.810 C 12.725 10.917,13.067 11.368,13.183 11.599 C 13.372 11.974,13.444 12.319,13.423 12.750 C 13.401 13.194,13.317 13.508,13.115 13.901 C 12.771 14.567,12.244 14.991,11.447 15.247 C 10.752 15.469,10.129 15.425,9.419 15.104 C 9.129 14.972,8.536 14.565,8.534 14.496 C 8.534 14.484,8.577 14.466,8.631 14.455 C 8.840 14.414,9.275 14.222,9.507 14.070 C 9.981 13.759,10.345 13.309,10.544 12.789 C 10.642 12.533,10.648 12.490,10.647 12.083 C 10.645 11.694,10.633 11.604,10.524 11.193 C 10.324 10.440,10.286 10.198,10.289 9.683 C 10.290 9.322,10.306 9.160,10.359 8.967 C 10.434 8.692,10.490 8.533,10.513 8.533 C 10.521 8.533,10.587 8.642,10.661 8.775 " fill="#101828" stroke="none" fill-rule="evenodd"></path></svg>