<svg width="20" height="20" viewBox="0 0 20 20" fill="none" xmlns="http://www.w3.org/2000/svg"><path d="M15.517 1.829 C 15.349 1.906,14.385 2.885,13.887 3.483 C 12.535 5.108,11.673 6.752,11.272 8.467 C 11.048 9.425,10.965 10.193,10.943 11.536 C 10.923 12.726,10.930 12.784,11.108 12.988 C 11.318 13.227,11.216 13.215,13.250 13.233 L 15.083 13.250 15.083 13.750 L 15.083 14.250 14.915 14.271 C 14.717 14.295,14.584 14.359,14.460 14.489 C 14.268 14.691,14.267 14.703,14.267 16.257 C 14.268 17.574,14.273 17.694,14.330 17.817 C 14.364 17.890,14.435 17.990,14.487 18.040 C 14.670 18.211,14.778 18.233,15.424 18.233 C 16.078 18.232,16.193 18.205,16.373 18.013 C 16.582 17.790,16.567 18.416,16.566 9.993 C 16.565 2.592,16.563 2.312,16.503 2.183 C 16.337 1.824,15.883 1.661,15.517 1.829 M3.850 2.662 C 3.683 2.738,3.515 2.926,3.466 3.091 C 3.440 3.178,3.433 3.703,3.442 4.817 C 3.456 6.584,3.453 6.560,3.691 7.124 C 4.050 7.975,4.900 8.722,5.767 8.949 L 5.917 8.988 5.933 13.369 C 5.952 18.201,5.934 17.830,6.155 18.040 C 6.428 18.299,6.906 18.299,7.178 18.040 C 7.399 17.830,7.382 18.201,7.400 13.369 L 7.417 8.988 7.567 8.949 C 8.433 8.722,9.283 7.975,9.642 7.124 C 9.880 6.560,9.878 6.584,9.892 4.817 C 9.901 3.703,9.893 3.178,9.867 3.091 C 9.819 2.926,9.650 2.738,9.484 2.662 C 9.220 2.543,8.859 2.600,8.655 2.793 C 8.445 2.993,8.452 2.940,8.431 4.617 C 8.409 6.300,8.407 6.317,8.193 6.694 C 8.034 6.975,7.576 7.400,7.434 7.400 C 7.411 7.400,7.400 6.699,7.400 5.282 C 7.400 3.443,7.393 3.148,7.348 3.041 C 7.103 2.453,6.231 2.453,5.985 3.041 C 5.940 3.148,5.933 3.443,5.933 5.282 C 5.933 6.699,5.922 7.400,5.899 7.400 C 5.757 7.400,5.300 6.975,5.140 6.694 C 4.926 6.317,4.924 6.300,4.903 4.617 C 4.882 2.940,4.888 2.993,4.678 2.793 C 4.474 2.600,4.113 2.543,3.850 2.662 M15.085 11.725 C 15.072 11.757,14.775 11.767,13.753 11.767 C 13.029 11.767,12.432 11.755,12.425 11.742 C 12.399 11.688,12.466 10.418,12.516 10.028 C 12.781 7.970,13.509 6.303,14.866 4.652 L 15.083 4.387 15.092 8.035 C 15.097 10.042,15.093 11.702,15.085 11.725 " stroke="none" fill-rule="evenodd" fill="black"></path></svg>