<svg width="20" height="20" viewBox="0 0 20 20" fill="none" xmlns="http://www.w3.org/2000/svg"><path d="M8.717 2.728 L 5.117 4.423 4.770 4.462 C 3.580 4.596,2.827 4.905,2.207 5.512 C 1.565 6.142,1.267 6.885,1.107 8.263 C 1.057 8.686,1.050 9.134,1.050 11.667 C 1.050 14.200,1.057 14.647,1.107 15.070 C 1.266 16.434,1.547 17.148,2.179 17.793 C 2.809 18.435,3.552 18.733,4.930 18.893 C 5.366 18.944,5.898 18.950,10.000 18.950 C 14.102 18.950,14.634 18.944,15.070 18.893 C 16.448 18.733,17.191 18.435,17.821 17.793 C 18.453 17.148,18.734 16.434,18.893 15.070 C 18.943 14.647,18.950 14.200,18.950 11.667 C 18.950 9.134,18.943 8.686,18.893 8.263 C 18.733 6.885,18.435 6.142,17.793 5.512 C 17.157 4.889,16.443 4.604,15.120 4.444 C 14.760 4.401,14.129 4.389,11.521 4.376 C 9.747 4.368,8.371 4.349,8.388 4.333 C 8.404 4.317,9.419 3.832,10.644 3.255 C 11.869 2.679,12.901 2.179,12.939 2.145 C 13.055 2.040,13.133 1.847,13.133 1.666 C 13.133 1.292,12.871 1.033,12.493 1.034 C 12.330 1.034,12.044 1.162,8.717 2.728 M13.633 5.666 C 14.738 5.699,15.146 5.735,15.633 5.839 C 16.749 6.079,17.260 6.594,17.497 7.718 C 17.611 8.255,17.629 8.504,17.671 10.125 C 17.703 11.339,17.703 11.995,17.671 13.208 C 17.649 14.056,17.616 14.870,17.599 15.017 C 17.524 15.649,17.351 16.244,17.146 16.575 C 16.789 17.154,16.115 17.473,14.983 17.600 C 14.413 17.664,12.686 17.697,10.000 17.697 C 7.314 17.697,5.587 17.664,5.017 17.600 C 3.405 17.419,2.751 16.889,2.486 15.550 C 2.390 15.067,2.370 14.767,2.328 13.208 C 2.296 11.990,2.296 11.343,2.328 10.125 C 2.351 9.277,2.384 8.463,2.401 8.317 C 2.568 6.911,2.997 6.267,3.983 5.939 C 4.482 5.773,5.073 5.701,6.217 5.668 C 7.455 5.633,12.465 5.631,13.633 5.666 M5.277 6.917 C 4.494 7.087,3.749 7.838,3.582 8.625 C 3.521 8.913,3.521 9.420,3.582 9.707 C 3.751 10.504,4.499 11.250,5.298 11.419 C 5.626 11.488,14.381 11.489,14.702 11.420 C 15.504 11.247,16.249 10.504,16.418 9.707 C 16.479 9.420,16.479 8.913,16.418 8.626 C 16.249 7.829,15.502 7.084,14.702 6.914 C 14.384 6.847,5.587 6.849,5.277 6.917 M14.567 8.237 C 15.378 8.623,15.378 9.715,14.567 10.095 C 14.391 10.177,14.358 10.181,13.767 10.182 L 13.150 10.183 13.133 9.764 C 13.118 9.387,13.108 9.332,13.033 9.222 C 12.934 9.076,12.671 8.933,12.500 8.933 C 12.329 8.933,12.066 9.076,11.967 9.222 C 11.892 9.332,11.882 9.387,11.867 9.764 L 11.850 10.183 8.733 10.183 L 5.617 10.183 5.433 10.096 C 4.774 9.783,4.616 8.954,5.120 8.455 C 5.279 8.298,5.461 8.201,5.664 8.167 C 5.748 8.152,7.744 8.143,10.100 8.145 L 14.383 8.150 14.567 8.237 M5.850 12.306 C 5.628 12.348,5.254 12.532,5.057 12.697 C 4.580 13.094,4.367 13.548,4.367 14.167 C 4.367 14.651,4.489 15.013,4.764 15.343 C 5.559 16.300,6.943 16.303,7.731 15.348 C 7.891 15.155,8.047 14.838,8.096 14.607 C 8.147 14.368,8.143 13.887,8.088 13.683 C 7.829 12.715,6.855 12.115,5.850 12.306 M10.550 13.589 C 10.317 13.712,10.200 13.905,10.200 14.167 C 10.200 14.427,10.317 14.623,10.540 14.737 C 10.658 14.797,10.772 14.800,12.917 14.800 C 15.061 14.800,15.175 14.797,15.293 14.737 C 15.516 14.623,15.633 14.427,15.633 14.167 C 15.633 13.906,15.516 13.710,15.293 13.596 C 15.175 13.536,15.063 13.533,12.910 13.535 C 10.913 13.536,10.638 13.542,10.550 13.589 M6.456 13.602 C 6.678 13.686,6.841 13.925,6.841 14.167 C 6.841 14.343,6.781 14.477,6.645 14.606 C 6.271 14.959,5.659 14.686,5.659 14.167 C 5.659 13.990,5.719 13.857,5.855 13.727 C 6.018 13.573,6.251 13.525,6.456 13.602 " stroke="none" fill-rule="evenodd" fill="black"></path></svg>