<svg width="32" height="32" fill="none" xmlns="http://www.w3.org/2000/svg"><path d="M7.468 6.599c-.329.116-.757.554-.872.891a1.59 1.59 0 0 0-.003 1.02c.079.239.415.592 3.693 3.877L13.892 16l-3.606 3.613c-3.278 3.285-3.614 3.638-3.693 3.877-.191.581-.064 1.126.364 1.553.427.428.972.555 1.553.364.239-.079.592-.415 3.877-3.693L16 18.108l3.613 3.606c3.285 3.278 3.638 3.614 3.877 3.693.581.191 1.126.064 1.553-.364.428-.427.555-.972.364-1.553-.079-.239-.415-.592-3.693-3.877L18.108 16l3.606-3.613c3.278-3.285 3.614-3.638 3.693-3.877.191-.581.064-1.126-.364-1.553-.427-.428-.972-.555-1.553-.364-.239.079-.592.415-3.877 3.693L16 13.892l-3.613-3.606C9.102 7.008 8.749 6.672 8.51 6.593a1.7 1.7 0 0 0-1.042.006" fill-rule="evenodd" fill="#000"/></svg>