<svg width="20" height="20" viewBox="0 0 20 20" fill="none" xmlns="http://www.w3.org/2000/svg"><path d="M3.541 1.834 C 2.728 2.047,2.041 2.739,1.832 3.554 C 1.743 3.903,1.743 4.431,1.832 4.780 C 2.006 5.457,2.483 6.029,3.139 6.344 L 3.428 6.483 3.439 7.619 L 3.450 8.754 3.575 9.007 C 3.740 9.340,3.994 9.594,4.327 9.758 L 4.580 9.883 5.665 9.900 L 6.750 9.917 6.767 12.668 L 6.783 15.420 6.908 15.673 C 7.073 16.006,7.327 16.260,7.660 16.425 L 7.913 16.550 9.432 16.560 C 10.472 16.567,10.990 16.559,11.076 16.534 C 11.358 16.451,11.565 16.159,11.566 15.841 C 11.567 15.534,11.415 15.286,11.150 15.163 C 11.027 15.106,10.910 15.101,9.677 15.101 C 8.503 15.100,8.332 15.094,8.286 15.047 C 8.238 15.000,8.234 14.731,8.241 12.456 L 8.250 9.917 9.667 9.900 C 11.216 9.882,11.175 9.887,11.373 9.678 C 11.641 9.396,11.628 8.891,11.346 8.627 C 11.130 8.424,11.283 8.433,8.003 8.433 C 5.322 8.433,4.999 8.428,4.952 8.381 C 4.907 8.336,4.900 8.201,4.901 7.406 L 4.902 6.483 5.193 6.344 C 5.849 6.030,6.328 5.458,6.501 4.780 C 6.590 4.431,6.590 3.903,6.501 3.554 C 6.291 2.732,5.601 2.043,4.780 1.832 C 4.436 1.745,3.879 1.745,3.541 1.834 M4.498 3.324 C 4.830 3.442,5.073 3.800,5.073 4.168 C 5.073 4.673,4.676 5.066,4.167 5.066 C 3.542 5.066,3.118 4.482,3.302 3.873 C 3.355 3.696,3.564 3.453,3.741 3.363 C 3.995 3.233,4.212 3.222,4.498 3.324 M13.850 5.997 C 13.777 6.030,13.676 6.101,13.627 6.154 C 13.428 6.367,13.433 6.289,13.434 8.757 C 13.435 10.885,13.438 11.024,13.497 11.150 C 13.747 11.692,14.536 11.712,14.828 11.183 C 14.871 11.105,14.887 10.958,14.900 10.500 L 14.917 9.917 15.400 9.897 C 16.101 9.868,16.393 9.747,16.834 9.303 C 17.108 9.026,17.298 8.694,17.364 8.373 C 17.410 8.146,17.410 7.686,17.363 7.460 C 17.222 6.777,16.556 6.111,15.873 5.970 C 15.771 5.949,15.335 5.934,14.840 5.934 C 14.077 5.935,13.969 5.942,13.850 5.997 M15.672 7.493 C 15.987 7.688,15.985 8.146,15.669 8.342 C 15.574 8.401,15.501 8.413,15.236 8.415 L 14.917 8.417 14.907 7.952 C 14.902 7.696,14.906 7.465,14.916 7.439 C 14.946 7.361,15.526 7.403,15.672 7.493 M13.850 13.497 C 13.777 13.530,13.676 13.601,13.627 13.654 C 13.430 13.864,13.433 13.830,13.434 15.841 C 13.435 17.563,13.439 17.692,13.497 17.817 C 13.572 17.980,13.710 18.113,13.874 18.182 C 14.073 18.265,15.270 18.255,15.613 18.168 C 16.435 17.957,17.124 17.268,17.334 16.446 C 17.424 16.097,17.424 15.569,17.334 15.220 C 17.124 14.399,16.435 13.709,15.613 13.499 C 15.397 13.444,15.245 13.433,14.670 13.434 C 14.073 13.435,13.966 13.443,13.850 13.497 M15.367 15.006 C 15.690 15.144,15.907 15.477,15.907 15.835 C 15.907 16.305,15.536 16.703,15.067 16.739 L 14.917 16.750 14.908 15.867 C 14.903 15.382,14.906 14.965,14.915 14.942 C 14.937 14.886,15.162 14.918,15.367 15.006 " stroke="none" fill-rule="evenodd" fill="black"></path></svg>