<svg width="32" height="32" viewBox="0 0 32 32" fill="none" xmlns="http://www.w3.org/2000/svg"><path d="M9.542 1.241 C 9.262 1.430,9.120 1.680,9.120 1.985 C 9.120 2.129,9.147 2.299,9.179 2.364 C 9.211 2.428,10.272 3.516,11.535 4.783 L 13.833 7.087 10.556 7.106 L 7.280 7.125 6.770 7.264 C 5.869 7.508,5.112 7.957,4.477 8.621 C 3.872 9.254,3.498 9.915,3.261 10.770 L 3.120 11.280 3.120 16.960 C 3.120 22.299,3.126 22.665,3.219 23.061 C 3.633 24.828,4.877 26.153,6.640 26.703 L 7.120 26.853 16.000 26.853 L 24.880 26.853 25.360 26.703 C 27.313 26.094,28.623 24.529,28.852 22.533 C 28.895 22.155,28.908 20.437,28.894 16.640 C 28.875 11.302,28.874 11.278,28.756 10.832 C 28.623 10.329,28.312 9.630,28.049 9.244 C 27.410 8.308,26.363 7.571,25.230 7.264 L 24.720 7.125 21.444 7.106 L 18.167 7.087 20.465 4.783 C 21.728 3.516,22.789 2.428,22.821 2.364 C 22.853 2.299,22.880 2.129,22.880 1.985 C 22.880 1.505,22.495 1.120,22.015 1.120 C 21.871 1.120,21.701 1.147,21.636 1.179 C 21.572 1.211,20.278 2.477,18.760 3.992 L 16.000 6.746 13.240 3.992 C 11.722 2.477,10.428 1.211,10.364 1.179 C 10.159 1.075,9.742 1.107,9.542 1.241 M24.741 8.989 C 25.811 9.241,26.759 10.189,27.011 11.259 C 27.133 11.774,27.133 22.274,27.012 22.749 C 26.868 23.314,26.629 23.727,26.191 24.166 C 25.765 24.594,25.392 24.820,24.824 24.995 C 24.522 25.089,24.102 25.093,16.000 25.093 C 7.898 25.093,7.478 25.089,7.176 24.995 C 6.082 24.658,5.260 23.813,4.988 22.749 C 4.867 22.274,4.867 11.774,4.989 11.259 C 5.239 10.195,6.179 9.247,7.234 8.991 C 7.719 8.874,24.244 8.872,24.741 8.989 M11.573 29.218 C 11.350 29.337,11.162 29.596,11.114 29.851 C 11.037 30.262,11.368 30.785,11.748 30.853 C 11.843 30.870,13.816 30.877,16.133 30.869 L 20.347 30.853 20.526 30.725 C 20.727 30.582,20.904 30.242,20.904 30.000 C 20.904 29.758,20.727 29.418,20.526 29.275 L 20.347 29.147 16.053 29.133 C 11.951 29.119,11.752 29.123,11.573 29.218 " stroke="none" fill-rule="evenodd" fill="black"></path></svg>