<svg width="20" height="20" viewBox="0 0 20 20" fill="none" xmlns="http://www.w3.org/2000/svg"><path d="M9.745 1.466 C 9.567 1.504,9.311 1.636,9.183 1.756 C 9.128 1.808,8.879 2.097,8.630 2.400 C 7.072 4.292,5.803 6.197,4.922 7.967 C 4.270 9.277,3.928 10.253,3.712 11.417 C 3.663 11.685,3.651 11.912,3.652 12.583 C 3.653 13.501,3.697 13.854,3.898 14.572 C 4.514 16.765,6.140 18.257,8.412 18.716 C 8.993 18.833,9.339 18.866,10.000 18.866 C 10.321 18.866,10.718 18.851,10.883 18.832 C 13.986 18.479,15.997 16.451,16.337 13.332 C 16.386 12.880,16.358 11.812,16.286 11.417 C 16.080 10.280,15.726 9.270,15.078 7.967 C 14.195 6.192,12.927 4.290,11.366 2.396 C 11.099 2.072,10.834 1.768,10.777 1.720 C 10.524 1.507,10.074 1.397,9.745 1.466 M10.262 3.406 C 12.249 5.845,13.803 8.404,14.457 10.317 C 14.715 11.070,14.829 11.650,14.857 12.338 C 14.906 13.571,14.602 14.725,14.010 15.558 C 13.685 16.015,13.145 16.493,12.633 16.776 C 11.546 17.376,9.807 17.544,8.417 17.183 C 7.250 16.879,6.324 16.187,5.764 15.199 C 5.245 14.284,5.026 12.992,5.184 11.786 C 5.399 10.146,6.428 7.976,8.182 5.467 C 8.746 4.659,9.943 3.104,10.000 3.105 C 10.009 3.105,10.127 3.241,10.262 3.406 M13.101 12.157 C 12.828 12.300,12.732 12.456,12.692 12.822 C 12.638 13.309,12.601 13.457,12.459 13.740 C 12.362 13.934,12.256 14.079,12.087 14.250 C 11.696 14.645,11.328 14.813,10.737 14.869 C 10.316 14.909,10.147 14.991,9.999 15.224 C 9.814 15.515,9.837 15.842,10.060 16.103 C 10.227 16.297,10.393 16.365,10.704 16.366 C 12.530 16.371,14.145 14.774,14.176 12.933 C 14.181 12.668,14.170 12.595,14.111 12.483 C 13.979 12.235,13.768 12.098,13.486 12.076 C 13.310 12.062,13.260 12.073,13.101 12.157 " stroke="none" fill-rule="evenodd" fill="black"></path></svg>