<svg width="20" height="14" viewBox="0 0 20 14" fill="none" xmlns="http://www.w3.org/2000/svg">
<g id="Vertical container">
<path id="Vector" d="M5.66666 12.0834H2.91666C2.74999 12.0834 2.66666 12 2.58333 11.9167C2.49999 11.8334 2.41666 11.6667 2.49999 11.5C2.99999 10.0834 4.24999 9.25003 5.66666 9.25003C7.41666 9.25003 8.83333 7.75003 8.83333 6.00003C8.83333 4.25003 7.41666 2.58336 5.66666 2.58336C3.91666 2.58336 2.49999 4.08336 2.49999 5.91669C2.49999 6.75003 2.83333 7.58336 3.33333 8.16669C2.24999 8.75003 1.41666 9.66669 0.91666 10.9167C0.749994 11.5 0.833327 12.25 1.24999 12.8334C1.66666 13.4167 2.24999 13.75 2.91666 13.75H5.66666C6.16666 13.75 6.49999 13.4167 6.49999 12.9167C6.49999 12.4167 6.16666 12.0834 5.66666 12.0834ZM4.16666 5.91669C4.16666 5.00003 4.83333 4.33336 5.66666 4.33336C6.49999 4.33336 7.16666 5.08336 7.16666 5.91669C7.16666 6.83336 6.49999 7.50003 5.66666 7.50003C4.83333 7.50003 4.16666 6.75003 4.16666 5.91669Z" fill="#101828"/>
<path id="Vector_2" d="M19.0833 10.4167C18.5 8.83336 17.3333 7.66669 16 7.00002C16.75 6.33336 17.1666 5.33336 17.1666 4.16669C17.1666 2.00002 15.5 0.250023 13.5 0.250023C11.5 0.250023 9.83331 2.00002 9.83331 4.16669C9.83331 5.25002 10.25 6.25002 11 7.00002C9.66664 7.66669 8.49998 8.83336 7.91664 10.4167C7.49998 11.1667 7.66664 12 8.08331 12.6667C8.49998 13.3334 9.24998 13.6667 9.99998 13.6667H16.9166C17.6666 13.6667 18.4166 13.25 18.8333 12.6667C19.3333 12 19.4166 11.1667 19.0833 10.4167ZM11.4166 4.25002C11.4166 3.00002 12.3333 2.00002 13.4166 2.00002C14.5 2.00002 15.4166 3.00002 15.4166 4.25002C15.4166 5.50002 14.5 6.50002 13.4166 6.50002C12.3333 6.50002 11.4166 5.41669 11.4166 4.25002ZM17.4166 11.75C17.3333 11.8334 17.1666 12.0834 16.9166 12.0834H9.99998C9.66664 12.0834 9.49998 11.8334 9.49998 11.75C9.41664 11.6667 9.24998 11.3334 9.41665 11C10.0833 9.25002 11.75 8.08336 13.5 8.08336C15.25 8.08336 16.9166 9.25002 17.5833 11C17.6666 11.3334 17.5 11.6667 17.4166 11.75Z" fill="#101828"/>
</g>
</svg>
